<svg version="1.1" id="Layer_1" xmlns="http://www.w3.org/2000/svg" xmlns:xlink="http://www.w3.org/1999/xlink" x="0px" y="0px"
	 width="100%" viewBox="0 0 1024 1024" enable-background="new 0 0 1024 1024" xml:space="preserve">
<rect x="0" y="0" width="1024" height="1024" fill="#ECE8E1"/>
<g transform="translate(512 512) scale(0.85) translate(-512 -512)">
<path fill="#000000" opacity="1.000000" stroke="none"
	d="
M997.402710,310.000244
	C997.387756,374.161652 997.371338,437.822998 997.354980,501.484344
	C997.352783,510.064850 997.357971,510.035553 1005.701233,511.535614
	C1007.217468,511.808228 1009.119324,511.148071 1010.340576,513.352905
	C1008.203796,514.779419 1005.765625,515.114441 1003.416260,515.224243
	C998.791138,515.440308 997.245056,517.571167 997.267761,522.219116
	C997.438110,557.048767 997.385010,591.879639 997.390991,626.710083
	C997.404419,704.536743 997.470337,782.363403 997.402466,860.190002
	C997.348999,921.427856 953.819397,976.941101 895.293213,990.592773
	C888.141846,992.260864 880.876465,993.141785 873.509827,993.140564
	C757.019287,993.121155 640.528687,993.114441 524.038147,993.109375
	C516.134705,993.109070 516.165466,993.130432 515.158508,1001.191589
	C514.813232,1003.955261 514.270996,1006.694336 513.704895,1010.136719
	C510.569885,1006.796265 511.621185,1003.059387 510.993744,999.892700
	C509.655243,993.137573 509.936218,993.073975 502.845093,993.075623
	C414.519165,993.095459 326.193237,993.118103 237.867310,993.139404
	C210.702835,993.145935 183.537155,993.315674 156.374191,993.115906
	C118.560318,992.837769 87.815392,977.055786 63.048553,949.168701
	C43.928535,927.640015 32.871475,902.259949 29.236689,873.717834
	C28.587332,868.618835 28.657721,863.408630 28.656263,858.249634
	C28.624987,747.433289 28.647274,636.616943 28.597145,525.800598
	C28.593292,517.281311 30.795044,515.975403 19.719456,514.903564
	C18.307323,514.766907 16.947485,514.089905 15.027599,513.498047
	C17.689295,510.914215 20.690172,511.065430 23.234056,510.986053
	C27.679319,510.847290 28.742699,508.909180 28.722269,504.760254
	C28.582754,476.430023 28.668653,448.098755 28.665787,419.767822
	C28.658537,348.107391 28.637016,276.446960 28.635105,204.786530
	C28.634693,189.305435 27.940685,173.779556 28.859642,158.351334
	C32.082348,104.245903 71.163551,50.864975 123.358414,36.495548
	C132.535324,33.969120 141.870804,32.630421 151.458725,32.635395
	C268.616272,32.696178 385.773834,32.659233 502.931396,32.650089
	C510.092407,32.649532 509.986237,32.646633 510.803619,25.749557
	C511.161774,22.727486 511.159363,19.544102 513.090637,16.063589
	C514.879822,19.426699 514.966431,22.516449 515.249084,25.479630
	C515.929504,32.614799 515.871887,32.671539 522.928162,32.671967
	C618.254211,32.677696 713.580200,32.675636 808.906250,32.675411
	C830.071228,32.675362 851.238159,32.854691 872.400818,32.631866
	C902.815979,32.311611 928.643616,43.693703 950.899597,63.581852
	C974.947815,85.071579 989.469666,112.129379 995.532104,143.750076
	C996.660889,149.637741 997.343384,155.578323 997.341675,161.607422
	C997.327942,210.905014 997.373596,260.202606 997.402710,310.000244
M548.498169,314.022797
	C550.387268,319.131470 549.793823,325.078644 557.840393,326.784973
	C583.669128,332.262238 606.637939,344.173645 627.534058,360.225342
	C635.590942,366.414368 642.973083,373.357910 650.758118,380.820923
	C657.927368,372.929352 664.821411,365.306854 671.754456,357.720001
	C677.107239,351.862427 681.174622,345.226318 683.887695,337.780365
	C693.019958,312.717590 691.620300,287.548676 683.084778,262.872467
	C670.004578,225.057541 643.938782,197.944092 609.866760,178.144424
	C586.261902,164.427353 560.622559,155.436508 534.737244,147.125870
	C532.377625,146.368301 529.351501,146.544876 528.065063,143.571838
	C529.288269,141.387878 531.249756,141.759430 533.004822,141.730759
	C538.337341,141.643677 543.628662,142.038010 548.948425,142.579620
	C591.539307,146.915985 628.886169,162.955017 659.259949,193.348694
	C690.061096,224.170013 707.438232,260.794128 704.346924,305.487305
	C703.948303,311.250916 702.334717,316.816467 701.830872,322.929718
	C705.088806,320.954254 707.103882,318.277496 709.415649,315.943726
	C731.929504,293.215179 754.387268,270.430817 776.972961,247.773987
	C778.877441,245.863449 781.340698,241.828079 784.189087,244.485245
	C787.305847,247.392654 783.505310,250.136002 781.470886,252.329971
	C759.493835,276.031006 737.078186,299.313721 714.467773,322.410309
	C710.199402,326.770386 706.072998,331.269440 701.881104,335.704346
	C703.933289,336.055298 705.522766,335.736969 707.058899,335.250092
	C717.772461,331.854156 728.763367,329.955566 739.979065,329.984528
	C769.603882,330.060974 796.481262,339.223602 820.228577,356.572418
	C866.096130,390.081451 889.165955,436.088623 892.641541,492.349152
	C892.792847,494.798920 893.286926,497.666443 890.835388,499.659760
	C888.370117,497.201355 888.409973,497.189209 886.629211,491.348999
	C874.930481,452.981537 858.452148,417.208191 829.705383,388.301117
	C802.092407,360.534210 769.349304,344.653290 729.413269,345.115631
	C697.818542,345.481415 673.139771,358.988892 653.782837,383.636017
	C653.811707,383.718414 653.874084,384.249847 654.150452,384.622650
	C655.141724,385.959717 656.178223,387.265839 657.245667,388.543488
	C676.779602,411.923706 690.697876,438.260925 697.933960,467.866699
	C699.334900,473.598419 701.988403,475.615540 707.237976,476.833069
	C746.005310,485.823944 785.018982,493.547028 824.242004,500.248169
	C849.514038,504.565826 874.848206,508.404999 900.367432,510.985413
	C903.272217,511.279114 904.498352,510.552765 905.418701,507.832550
	C907.963623,500.310669 913.463623,495.925659 921.280701,495.271149
	C928.683350,494.651337 934.616577,498.025146 938.515320,504.294952
	C940.175110,506.964325 942.075806,507.779022 945.019653,507.735474
	C953.516968,507.609741 962.017517,507.705139 970.516785,507.713257
	C978.605835,507.720978 978.633850,507.720734 978.634583,499.533722
	C978.644531,390.043335 978.719238,280.552887 978.588196,171.062668
	C978.561829,148.987625 973.099060,128.097061 961.568420,109.182938
	C938.667969,71.618454 906.582092,50.491863 861.004944,50.963520
	C790.020020,51.698112 719.021423,51.100731 648.028625,51.096828
	C606.699341,51.094559 565.370056,51.157230 524.040771,51.161182
	C520.839966,51.161488 518.169861,51.067303 518.267761,55.713417
	C518.534058,68.356667 519.276672,81.005257 518.452637,93.656418
	C518.266663,96.510834 519.224670,98.447884 521.869995,100.186928
	C533.995850,108.158325 533.105713,124.395363 520.108643,131.032379
	C516.738037,132.753586 515.821594,134.769089 516.374573,138.074844
	C516.649353,139.717178 516.993469,141.352356 517.175171,143.005173
	C520.666016,174.771576 526.447632,206.172333 532.287903,237.561844
	C537.004639,262.912292 542.783997,288.039490 548.498169,314.022797
M795.380432,683.001526
	C764.824158,697.152954 733.523926,699.978210 701.171204,689.059387
	C703.270203,691.861877 705.446655,694.337952 707.762939,696.675415
	C732.748047,721.888489 757.608521,747.222229 781.845886,773.158752
	C783.814087,775.264832 787.249817,777.897095 784.417786,780.684265
	C781.273804,783.778442 779.192261,779.524353 777.326172,777.671387
	C753.793762,754.305481 730.376343,730.823792 706.896790,707.404541
	C705.358337,705.870056 704.063354,703.894592 701.406250,703.084106
	C701.486511,704.224182 701.446289,704.888062 701.589600,705.509583
	C706.428467,726.497742 705.101318,747.284973 698.590820,767.623779
	C685.521057,808.453979 659.998413,839.404785 622.897278,860.745422
	C595.508484,876.499451 565.998535,884.821167 534.316528,885.061340
	C532.126221,885.077942 529.650574,885.581970 528.268860,883.081726
	C529.091187,881.250061 530.575439,880.982178 532.010254,880.547974
	C544.609070,876.735229 557.033081,872.425171 569.309814,867.665710
	C595.446594,857.533142 620.240601,845.002930 640.772217,825.543152
	C674.018799,794.032166 692.449158,756.204041 688.781799,709.327087
	C686.646057,682.027893 669.387390,663.940491 651.134155,646.506470
	C650.484558,646.746216 650.121521,646.790771 649.879944,646.985779
	C649.104126,647.612122 648.346863,648.266541 647.628967,648.958435
	C621.416748,674.221863 591.222473,692.325684 555.333557,700.080261
	C552.282288,700.739563 551.435852,702.492798 550.787476,705.123779
	C535.962097,765.279541 524.244385,826.018005 516.385193,887.487549
	C515.905212,891.241638 516.369080,893.755493 520.437073,895.833862
	C533.084656,902.295593 533.630676,918.855469 521.631470,926.354614
	C519.138000,927.912964 518.287781,929.599060 518.312073,932.375916
	C518.414185,944.041199 518.349792,955.707825 518.364136,967.373962
	C518.373230,974.766968 518.387329,974.782898 525.696655,974.782654
	C640.025879,974.778564 754.355164,974.767639 868.684387,974.769653
	C874.373718,974.769714 879.994507,974.132324 885.537476,972.939941
	C916.470337,966.286072 939.901367,948.619263 957.784729,923.122192
	C973.168030,901.189514 978.806213,876.474365 978.736633,849.925720
	C978.520752,767.595215 978.661987,685.263794 978.658142,602.932739
	C978.656982,576.600220 978.562561,550.267334 978.696411,523.935547
	C978.718384,519.610657 977.370605,518.086426 972.954224,518.227600
	C963.463745,518.530884 953.957153,518.402039 944.458252,518.323914
	C941.888123,518.302795 940.295166,519.099365 938.766602,521.360229
	C929.335388,535.309204 912.453674,534.083374 905.487122,518.888367
	C904.070251,515.797852 902.284607,515.027954 899.334351,515.352234
	C892.385620,516.115906 885.400574,516.614197 878.485413,517.605347
	C852.127991,521.383118 825.836365,525.556946 799.615173,530.224915
	C768.303833,535.799133 737.282349,542.700073 706.257019,549.614624
	C702.385315,550.477478 699.344849,551.673340 698.447876,556.548157
	C695.715942,571.395325 689.913940,585.228699 683.260986,598.709534
	C675.842407,613.741577 666.292480,627.350281 655.528564,640.148560
	C654.422485,641.463745 652.369507,642.903381 654.522400,644.740479
	C663.498657,652.400513 670.687317,662.231750 681.229065,667.947754
	C705.557739,681.139404 731.557495,684.220398 758.237732,677.887878
	C800.867188,667.769653 832.282349,641.933228 855.562256,605.554260
	C870.411194,582.350220 880.609802,557.094727 887.759583,530.555298
	C888.258789,528.702209 888.472351,526.510193 891.128174,526.406799
	C893.021362,527.672302 893.028442,529.558655 892.955688,531.373962
	C892.313416,547.398621 890.362183,563.250122 885.453918,578.567261
	C870.312805,625.818542 841.395996,661.310791 795.380432,683.001526
M495.783966,227.445419
	C497.222229,219.426666 498.587585,211.394012 500.112854,203.391830
	C504.194397,181.978165 506.724518,160.337555 509.719757,138.763840
	C510.236481,135.042023 509.441101,132.941467 505.585938,131.093185
	C493.515747,125.306358 492.503632,108.064018 503.660858,100.524452
	C506.681793,98.483063 507.787628,96.329559 507.731110,92.788857
	C507.547577,81.292686 507.672394,69.791710 507.661896,58.292606
	C507.655365,51.141190 507.641937,51.119049 500.587158,51.119839
	C455.092041,51.124920 409.596954,51.135597 364.101837,51.153709
	C294.275391,51.181507 224.448929,51.200527 154.622513,51.262783
	C140.876709,51.275036 127.716805,54.451347 115.709785,60.919949
	C73.198814,83.822090 50.092388,119.661819 48.239677,167.859680
	C46.947952,201.463669 47.908291,235.155075 47.902035,268.807434
	C47.892986,317.470184 48.043980,366.133301 47.884262,414.795502
	C47.788563,443.953156 48.552532,473.117249 47.431931,502.268097
	C47.282753,506.148834 48.338051,507.945831 52.733955,507.797516
	C62.389072,507.471741 72.062828,507.638519 81.728104,507.714447
	C84.270882,507.734406 85.995987,507.084290 87.461212,504.730988
	C91.448486,498.326996 97.410240,494.681580 104.992767,495.295074
	C113.253555,495.963470 118.780685,500.786743 121.194466,508.766998
	C121.884781,511.049286 122.864967,511.519684 125.128716,511.206726
	C144.252151,508.562958 163.463791,506.482605 182.514404,503.401367
	C229.010345,495.881042 275.276581,487.127716 321.110992,476.183960
	C324.589935,475.353241 326.692810,474.249329 327.520721,470.532410
	C334.055359,441.194489 347.740662,415.347717 366.160828,391.813751
	C368.299561,389.081268 372.273560,386.893768 372.251740,383.579865
	C372.227264,379.866272 367.655212,378.271606 365.131622,375.723633
	C358.464386,368.992035 352.167297,361.742523 343.602722,357.236542
	C313.711090,341.509735 282.798340,341.423676 251.659653,352.410828
	C217.074341,364.614136 191.772842,388.408875 172.261093,418.810974
	C157.304550,442.115387 146.632278,467.359253 138.931870,493.914032
	C138.297867,496.100403 138.399567,499.052704 135.249039,499.795624
	C133.688644,497.095520 133.682526,497.095551 133.663803,494.263977
	C133.587494,482.717468 135.023682,471.335907 137.802811,460.153717
	C149.201630,414.289246 173.129852,377.046906 213.608337,351.552094
	C241.508789,333.979370 271.769897,326.412231 304.740387,331.726624
	C311.801483,332.864746 318.527008,335.380280 326.146179,337.403564
	C323.400848,334.453918 321.295715,332.098358 319.092102,329.838867
	C294.196655,304.312164 269.262054,278.823212 245.115204,252.579651
	C243.648132,250.985199 242.066223,249.480377 241.338638,247.361816
	C240.922791,246.150955 241.112411,245.013077 242.140854,244.209442
	C243.032944,243.512360 244.092819,243.727341 244.955170,244.271118
	C246.074448,244.976913 247.192535,245.749741 248.121399,246.682632
	C262.577850,261.202179 276.967438,275.788483 291.448425,290.283447
	C302.255493,301.100922 313.171600,311.809540 324.040741,322.568207
	C324.164001,322.416351 324.358704,322.281586 324.342560,322.180573
	C324.133209,320.871582 323.904388,319.565491 323.660583,318.262329
	C318.560425,291.002838 322.401184,264.896790 333.983002,239.857925
	C349.195862,206.969040 373.251404,182.268539 404.689392,164.688095
	C431.520172,149.684021 460.511597,142.400055 491.195251,141.741135
	C493.538208,141.690811 496.181274,141.229904 497.882568,143.763992
	C497.048950,145.565933 495.634338,145.935303 494.194214,146.368744
	C481.593994,150.161087 469.212433,154.588928 456.870667,159.144058
	C432.468658,168.150452 409.467499,179.738174 389.608215,196.746246
	C355.323944,226.108337 335.277740,262.494690 336.382172,308.650726
	C336.836914,327.654694 342.519287,345.002350 355.744629,359.306519
	C361.173798,365.178528 366.504639,371.141510 371.943451,377.004425
	C373.029144,378.174744 373.853729,379.796814 375.699890,379.984589
	C376.067139,379.839539 376.437622,379.789917 376.670532,379.584412
	C377.668701,378.703644 378.648743,377.799561 379.595642,376.863770
	C404.923828,351.830627 434.511292,334.302338 469.380341,326.256195
	C473.415619,325.325043 475.040497,323.401917 476.016052,319.501221
	C483.566650,289.309937 489.856110,258.853302 495.783966,227.445419
M246.885880,770.407959
	C272.660706,743.702576 298.435547,716.997192 324.608063,689.879822
	C323.248901,689.602905 322.903442,689.421265 322.624451,689.494080
	C321.015045,689.914124 319.406311,690.348145 317.824585,690.861328
	C302.641113,695.788452 286.916992,697.071472 271.370331,694.738037
	C224.538361,687.708923 188.423645,663.303894 162.431030,624.107422
	C143.985901,596.292480 133.949677,565.554504 133.710373,531.930298
	C133.696411,529.971069 132.844330,527.512817 135.481247,526.289429
	C137.940079,528.718018 137.920700,528.723511 139.284225,533.527283
	C149.364075,569.038696 164.465530,602.014099 189.198853,629.866882
	C213.584061,657.327637 243.349716,675.526733 280.383759,679.875671
	C317.653839,684.252380 348.948029,672.832458 372.750183,642.821777
	C372.795685,642.936462 372.746490,642.566650 372.542084,642.332153
	C350.247650,616.755554 334.532288,587.758118 327.039093,554.527954
	C326.405701,551.719177 324.803680,550.767578 322.324036,550.226746
	C315.005920,548.630737 307.709259,546.935791 300.409332,545.257324
	C260.497711,536.080627 220.242050,528.701660 179.777298,522.479126
	C162.683044,519.850342 145.504822,517.759949 128.349197,515.545593
	C125.540131,515.182983 122.458809,514.249695 121.059677,518.546509
	C118.513695,526.365479 112.574745,530.523560 104.579239,530.949951
	C97.004929,531.353821 91.063560,527.839478 87.292923,521.142334
	C86.168289,519.144836 84.737404,518.340637 82.483459,518.352295
	C72.150826,518.405579 61.817348,518.398376 51.484905,518.318604
	C48.476028,518.295349 47.343594,519.521301 47.480812,522.544922
	C47.759930,528.695129 47.904911,534.856567 47.905739,541.013428
	C47.919716,645.010925 48.038063,749.008728 47.815411,853.005737
	C47.743313,886.680725 58.702690,915.731262 82.220818,939.773315
	C104.258011,962.301514 130.682098,974.998474 162.808502,974.821655
	C204.806076,974.590454 246.805832,974.756592 288.804657,974.755798
	C359.802887,974.754578 430.801178,974.720459 501.799194,974.841919
	C506.315186,974.849670 507.909332,973.659241 507.783722,968.958313
	C507.467743,957.133484 507.564514,945.293396 507.730865,933.462646
	C507.780090,929.959778 506.798584,927.809082 503.721985,925.725464
	C492.937012,918.421326 493.056183,902.631470 504.391907,896.696106
	C509.942169,893.790100 510.236420,890.273315 509.553772,885.495361
	C506.871613,866.723328 504.528687,847.891663 501.334290,829.206177
	C494.238892,787.701355 485.694794,746.483887 475.611328,705.591370
	C474.797760,702.292053 473.312317,700.660217 469.825775,699.872925
	C435.630188,692.151428 406.401764,675.293030 381.138916,651.218445
	C379.278290,649.445374 377.708832,647.114624 374.580078,646.514587
	C367.155640,654.767639 359.212341,662.592224 352.229950,671.308228
	C343.281952,682.477722 338.728638,695.492249 337.425018,709.453430
	C334.211975,743.863953 344.285034,774.643738 364.435486,802.304749
	C381.899384,826.277832 404.898743,843.587219 431.303314,856.579407
	C450.630615,866.089355 470.791016,873.470886 491.426300,879.603699
	C493.776123,880.302124 496.798309,880.146362 498.001587,883.172974
	C494.998077,885.054993 494.998230,885.066833 491.915009,885.109131
	C479.517273,885.278992 467.254913,883.598633 455.280579,880.819397
	C413.299225,871.075745 377.836487,850.538208 352.013062,815.390442
	C332.592865,788.957947 321.195435,759.518982 321.797028,726.171448
	C321.942078,718.130859 323.667114,710.272339 324.616425,702.061462
	C323.350647,702.825012 322.683258,704.011902 321.756897,704.940369
	C297.743347,729.007080 273.706238,753.050354 249.657730,777.082214
	C248.365829,778.373108 247.010361,779.624756 245.550308,780.715027
	C244.494751,781.503113 243.156586,782.221130 241.978287,780.900269
	C241.029266,779.836487 240.645935,778.403564 241.483231,777.196289
	C242.993973,775.018005 244.741714,773.004028 246.885880,770.407959
M483.185730,403.561493
	C482.560699,405.104614 481.949554,406.653503 481.308594,408.189972
	C474.392181,424.769989 465.938782,440.435364 452.696747,452.894165
	C434.637024,469.885773 413.110870,480.861176 389.626251,488.305908
	C355.808411,499.026306 320.697754,502.996124 285.839752,508.279816
	C274.792694,509.954285 263.710541,511.397308 251.604218,513.091858
	C259.215057,514.036987 265.782227,514.745972 272.316864,515.682068
	C304.423492,520.281555 336.698090,523.814270 368.405090,530.951477
	C389.170868,535.625854 408.999207,542.679749 427.435699,553.455505
	C456.902008,570.677917 474.155975,597.184998 485.296509,628.592773
	C500.114838,670.369202 505.218048,713.975830 510.299927,757.611694
	C511.122101,764.671204 512.011414,771.722900 512.869751,778.778137
	C516.043213,756.894287 518.574890,735.107788 521.512146,713.360779
	C525.939026,680.584534 532.749146,648.447876 545.004578,617.653442
	C553.526367,596.240417 566.160095,577.759155 584.517883,563.353455
	C601.858459,549.745911 621.487976,540.835327 642.432983,534.849304
	C673.887268,525.859924 706.359863,522.224976 738.640930,517.679443
	C749.549622,516.143372 760.471069,514.698792 772.198914,513.101807
	C751.970154,510.073364 732.627808,507.101837 713.261353,504.296509
	C686.070068,500.357635 658.937561,496.112183 632.833557,487.165161
	C607.097900,478.344421 583.520508,465.826141 565.749573,444.593079
	C552.056396,428.232117 544.194824,408.740906 537.732117,388.640503
	C525.017090,349.094269 520.503967,308.064392 515.688538,267.089050
	C514.816345,259.667328 514.073120,252.230499 513.270325,244.800644
	C512.113098,251.799866 511.721191,258.770172 510.846985,265.679474
	C508.446259,284.653809 505.940643,303.616180 503.296936,322.558197
	C499.467133,349.997894 493.460114,376.915649 483.185730,403.561493
M365.237732,598.304443
	C389.390930,638.053772 445.871918,681.842102 468.852142,678.179810
	C458.212891,640.957825 437.917389,610.250916 408.007996,585.897949
	C390.524902,571.662781 370.685394,562.156616 347.488678,556.210327
	C351.770142,571.705200 357.679688,584.948120 365.237732,598.304443
M564.471375,657.866638
	C561.894348,664.772888 558.827515,671.535400 557.508545,679.744019
	C593.104614,669.143982 621.828125,649.903259 644.577148,621.868958
	C660.072388,602.773743 671.642029,581.556946 677.183350,557.165649
	C622.885498,571.737183 586.911011,606.660522 564.471375,657.866638
M391.194183,393.693298
	C371.076324,415.301636 356.502930,440.037842 347.789368,469.706665
	C379.755707,461.540894 405.646759,445.680634 427.123260,422.742340
	C447.264923,401.229736 461.477966,376.268463 468.952362,347.102570
	C448.960754,350.226257 414.813599,368.425995 391.194183,393.693298
M661.043152,464.394409
	C666.392334,465.983185 671.500732,468.481384 677.226807,469.094635
	C676.408508,426.566315 601.592834,350.564117 557.696838,347.362610
	C557.592407,347.811188 557.330994,348.302002 557.404724,348.735901
	C557.626160,350.038269 557.893311,351.345306 558.292053,352.603210
	C565.363647,374.914978 576.135864,395.225403 591.000427,413.356567
	C609.755676,436.233551 632.531860,453.578430 661.043152,464.394409
z"/>
<path fill="#000000" opacity="1.000000" stroke="none"
	d="
M788.527893,229.453156
	C779.578064,223.464539 769.501221,221.833893 759.413391,219.192474
	C772.666016,215.320282 786.722107,213.706161 796.479736,202.429901
	C806.075195,191.340958 808.295105,177.564575 811.265137,163.740891
	C814.065918,177.307434 815.865906,191.015717 825.197388,201.954651
	C834.845032,213.264175 848.337646,216.124161 862.254333,218.896729
	C848.855042,222.704025 835.010193,225.014923 825.445374,236.450729
	C816.078735,247.649567 814.248047,261.507111 811.224731,275.286285
	C807.990479,257.782379 804.639526,240.638992 788.527893,229.453156
z"/>
<path fill="#000000" opacity="1.000000" stroke="none"
	d="
M765.701172,183.267746
	C771.360901,187.955811 776.791748,192.364487 782.088928,196.928329
	C783.688416,198.306427 786.663391,199.715469 784.158020,202.453796
	C782.099060,204.704102 779.443298,206.541260 776.295471,204.058304
	C771.590027,200.346802 766.985962,196.507141 762.323730,192.740616
	C720.311707,158.800201 673.675171,133.320282 622.498230,116.062607
	C604.970459,110.151970 587.329102,104.802307 568.962952,102.175636
	C567.859131,102.017776 566.594849,102.008743 565.670837,99.370468
	C602.796326,103.131683 637.895447,111.953224 671.639221,126.422852
	C705.533325,140.956985 736.587769,160.152786 765.701172,183.267746
z"/>
<path fill="#000000" opacity="1.000000" stroke="none"
	d="
M838.110596,267.848999
	C834.410339,262.888794 830.924927,258.214783 827.444275,253.537247
	C825.124512,250.419708 826.173828,247.851089 828.960876,245.841293
	C831.806030,243.789581 833.183411,246.312622 834.574280,248.079178
	C862.444946,283.477692 886.209534,321.321777 902.281006,363.601288
	C912.599976,390.747711 920.101685,418.671844 923.463928,447.605164
	C923.559082,448.423798 923.624817,449.253052 923.599426,450.074097
	C923.591675,450.324554 923.232483,450.564117 922.367737,451.630920
	C907.260742,384.130890 879.219482,323.153046 838.110596,267.848999
z"/>
<path fill="#000000" opacity="1.000000" stroke="none"
	d="
M851.822388,808.901917
	C831.219910,812.740356 819.612122,825.201416 815.189026,844.847351
	C813.960938,850.301819 813.044312,855.826416 811.222351,861.455017
	C808.391174,847.782715 806.289368,833.928162 796.851318,822.985229
	C787.135681,811.720398 773.333923,809.385071 759.721558,806.876770
	C759.907715,804.256592 761.818787,804.852478 763.089905,804.641846
	C772.394592,803.099731 781.293274,800.350952 789.105408,794.970154
	C799.724548,787.656067 805.052917,776.920593 807.737976,764.658508
	C808.811523,759.755859 809.756287,754.825073 811.376282,749.912842
	C814.120361,763.757385 815.856995,777.727295 825.555176,788.833374
	C835.204468,799.883545 848.700867,802.781433 862.226074,805.875183
	C859.003235,808.039673 855.463623,807.864136 851.822388,808.901917
z"/>
<path fill="#000000" opacity="1.000000" stroke="none"
	d="
M685.225647,893.307739
	C647.294128,911.542908 607.828857,922.627563 565.725525,926.287720
	C566.763000,923.194092 568.757202,923.716309 570.225220,923.441528
	C631.466125,911.979370 686.792053,886.710999 737.923157,851.650330
	C750.292114,843.168884 762.336914,834.262207 773.462585,824.163757
	C774.804626,822.945679 776.311096,821.753967 777.956543,821.061401
	C780.418884,820.025024 782.558350,821.213806 784.157837,823.091064
	C786.025146,825.282837 784.256653,826.875671 782.804810,828.160522
	C776.696533,833.565918 770.684021,839.107422 764.279480,844.145264
	C739.849792,863.361816 713.682861,879.831787 685.225647,893.307739
z"/>
<path fill="#000000" opacity="1.000000" stroke="none"
	d="
M834.828369,777.820007
	C832.918213,780.100037 831.237244,782.069092 828.458191,779.577637
	C825.745483,777.145813 825.588623,774.710632 827.910950,771.780640
	C840.640930,755.719360 852.287598,738.900696 863.012024,721.431519
	C880.495056,692.953064 894.421936,662.800171 905.792969,631.419861
	C911.976074,614.356567 917.197815,597.024841 920.847595,579.232849
	C921.073242,578.132812 921.649597,577.104797 922.352356,575.299133
	C923.968628,578.249023 923.200439,580.592224 922.848145,582.878784
	C911.597839,655.890259 881.432739,720.373169 834.828369,777.820007
z"/>
<path fill="#000000" opacity="1.000000" stroke="none"
	d="
M216.444946,270.250092
	C216.208405,272.045593 216.544739,273.623596 214.371841,275.232239
	C211.972992,261.148926 209.989975,247.449463 200.715530,236.474716
	C191.140274,225.144012 177.463043,222.550858 163.835999,219.017059
	C177.190384,215.719864 190.929459,213.620865 200.535706,202.539520
	C210.069443,191.541824 212.136627,177.846466 214.058014,164.002747
	C216.480240,164.350922 216.067810,166.077896 216.291382,167.393082
	C217.573151,174.933334 219.005569,182.389694 221.865570,189.581848
	C228.424484,206.075714 241.408905,213.729691 257.999939,216.689148
	C260.869446,217.201019 263.809753,217.388901 266.972595,218.773987
	C265.118927,221.031296 262.713409,220.512833 260.832245,220.898209
	C233.971817,226.400894 222.147186,238.442444 217.339539,265.424744
	C217.076920,266.898651 216.779144,268.366241 216.444946,270.250092
z"/>
<path fill="#000000" opacity="1.000000" stroke="none"
	d="
M267.165222,178.122681
	C298.272491,154.560303 331.285522,135.072342 367.408752,121.032967
	C395.496460,110.116631 424.697968,103.805649 454.473267,99.870247
	C456.307556,99.627808 458.352081,98.932487 460.205536,100.288963
	C459.699738,102.058846 458.179413,101.935631 456.980164,102.150032
	C411.442535,110.291328 369.042389,126.973938 328.709351,149.267563
	C301.374695,164.376465 275.831390,182.083344 252.058212,202.342667
	C251.173126,203.096924 250.240692,203.814453 249.255142,204.428406
	C246.316223,206.259186 244.051575,204.495972 242.182800,202.636948
	C239.817566,200.284042 242.223068,198.744431 243.718185,197.340729
	C251.012924,190.492142 258.957458,184.427353 267.165222,178.122681
z"/>
<path fill="#000000" opacity="1.000000" stroke="none"
	d="
M200.015961,249.359497
	C200.503540,251.988846 199.029922,253.443451 197.821030,255.020493
	C173.739044,286.436127 152.663376,319.704285 136.360840,355.841919
	C123.269394,384.861664 112.261131,414.632416 105.428238,445.818512
	C105.016846,447.696167 104.804832,449.611023 103.232742,451.502014
	C101.744728,449.047882 102.624863,446.893677 102.916519,444.943909
	C112.325966,382.041595 135.972397,324.946289 173.109009,273.383331
	C179.040466,265.147675 185.007812,256.936768 191.058487,248.788605
	C194.761139,243.802353 196.107559,243.897079 200.015961,249.359497
z"/>
<path fill="#000000" opacity="1.000000" stroke="none"
	d="
M208.754486,837.276489
	C201.322678,816.078552 184.253281,809.321411 164.142807,806.345093
	C177.750290,802.342163 191.603882,799.716125 201.011124,788.100220
	C210.043961,776.946716 212.324112,763.397827 214.869263,749.622131
	C217.714828,763.405579 220.001633,777.207581 229.376953,788.186646
	C239.051437,799.516052 252.621460,802.950073 266.736511,805.948120
	C253.279907,809.560669 239.328430,811.614563 229.643051,822.869934
	C220.136551,833.917297 218.093369,847.790283 215.087769,861.479736
	C212.112640,853.626099 212.212631,845.187378 208.754486,837.276489
z"/>
<path fill="#000000" opacity="1.000000" stroke="none"
	d="
M430.862000,922.313904
	C359.852692,909.404846 299.171753,876.667053 245.417709,830.064819
	C243.536514,828.434021 240.504837,827.015198 241.526672,823.749573
	C242.154938,821.741699 244.312180,820.956055 246.329727,820.610596
	C248.807037,820.186401 250.328888,822.019592 251.922562,823.410767
	C268.899628,838.230774 286.924133,851.670288 306.094055,863.480774
	C352.990662,892.373474 402.861877,913.913452 457.389160,923.692688
	C458.481812,923.888611 459.813110,923.742371 460.181274,926.009888
	C450.281952,926.084839 440.840637,923.714478 430.862000,922.313904
z"/>
<path fill="#000000" opacity="1.000000" stroke="none"
	d="
M145.216187,708.685181
	C122.933128,666.931946 109.274979,622.842651 102.336952,575.892334
	C104.839775,576.687256 104.966728,577.914673 105.215652,579.020996
	C115.936409,626.670471 134.138763,671.369873 158.585953,713.554749
	C170.210205,733.612976 183.681885,752.446655 197.814468,770.808960
	C199.006912,772.358337 200.697983,773.880371 199.933777,776.119995
	C199.273727,778.054382 197.945419,779.681519 195.956635,780.360229
	C193.659821,781.143982 192.733490,779.118652 191.634186,777.751465
	C174.267334,756.152893 158.912811,733.198242 145.216187,708.685181
z"/>
<path fill="#000000" opacity="1.000000" stroke="none"
	d="
M519.557983,590.490479
	C516.328308,604.049438 515.058655,617.499634 513.414856,630.971130
	C511.232239,629.095764 511.910126,626.718018 511.764862,624.562988
	C510.471222,605.365356 507.605042,586.541382 499.308319,568.895630
	C485.541443,539.615906 462.876862,521.931030 430.942963,516.437378
	C417.308228,514.091797 403.550659,512.854004 389.681732,513.232361
	C387.570068,513.290039 385.388245,513.495850 382.914215,512.478638
	C384.745483,510.046021 387.067749,510.828888 388.982910,510.802551
	C406.170959,510.566162 423.278351,509.270691 440.018829,505.317963
	C476.510803,496.701569 497.201294,472.559631 505.644257,436.975952
	C509.181274,422.068878 511.557953,406.945892 511.785858,391.558044
	C511.803802,390.346191 511.401520,388.835724 513.749939,387.737274
	C514.283691,393.804596 514.688782,399.598450 515.320801,405.367493
	C517.153198,422.092804 519.515503,438.714478 525.960571,454.442047
	C538.135010,484.151001 560.771118,500.696686 591.774719,506.675812
	C606.372681,509.491089 621.162659,510.241882 635.978088,510.737244
	C638.226257,510.812439 640.637451,510.107758 642.967224,511.847839
	C641.540344,514.036926 639.353821,513.255920 637.630310,513.227905
	C621.255798,512.961365 604.972717,513.986633 589.010559,517.703369
	C557.897339,524.947998 537.102356,544.296387 525.115234,573.496704
	C522.910034,578.868408 521.465698,584.552429 519.557983,590.490479
M489.988129,521.483459
	C499.285828,529.048096 506.032837,538.902527 513.275085,549.145691
	C522.554932,534.326599 533.221863,522.417725 547.386475,512.764465
	C532.575500,503.087646 521.678650,491.026733 512.993652,476.119659
	C504.182220,491.527435 492.869324,503.274139 478.700012,512.610657
	C482.668427,515.714783 486.059509,518.367310 489.988129,521.483459
z"/>
</g>
</svg>
